<?xml version="1.0" encoding="utf-8"?>
<!-- Generator: Adobe Illustrator 21.0.2, SVG Export Plug-In . SVG Version: 6.00 Build 0)  -->
<svg version="1.1" id="Calque_1" xmlns="http://www.w3.org/2000/svg" xmlns:xlink="http://www.w3.org/1999/xlink" x="0px" y="0px"
	 viewBox="0 0 123.2 112.2" style="enable-background:new 0 0 123.2 112.2;" xml:space="preserve">
<style type="text/css">
	.st0{fill:#634E42;}
	.st1{fill:#7A6A58;}
</style>
<g>
	<path class="st0" d="M22,34.6l-0.9,1.7l-3,0.3c-0.1,0.2-0.2,0.4-0.3,0.7l-0.5,0.9l2.1,1.2l-0.8,1.4l-8.9-4.9l1.3-2.3
		c1.3-2.5,3.4-3.1,5.5-1.9c1.4,0.8,2.1,2,2,3.4L22,34.6z M16.6,36.7c0.9-1.7,0.5-2.9-0.9-3.6c-1.4-0.7-2.6-0.5-3.5,1.2l-0.5,0.8
		l4.4,2.4L16.6,36.7z"/>
	<path class="st0" d="M14.8,27.1l4.1-5.1L20,23L17,26.8l3.3,2.6L23,26l1.1,0.9l-2.7,3.4l1.3,1.1l3.2-4l1.1,0.9l-4.2,5.2L14.8,27.1z"
		/>
	<path class="st0" d="M28.6,26.7l-1.2,1.1L23.9,17l0.1-0.1l10.2,4.9l-1.3,1.1l-1.4-0.7c0,0-3.4,3-3.4,3L28.6,26.7z M26.2,19.6
		l1.4,4.2l2.5-2.2C30.2,21.5,26.2,19.6,26.2,19.6z"/>
	<path class="st0" d="M29.9,12.5l2.5-1.4c2.9-1.7,5.7-0.9,7.2,1.8c1.5,2.6,0.8,5.4-2.1,7.1L35,21.3L29.9,12.5z M36.7,18.7
		c2.3-1.3,2.5-3.2,1.5-5.1c-1.1-1.9-2.8-2.6-5.1-1.3l-1,0.6l3.6,6.4L36.7,18.7z"/>
	<path class="st0" d="M44.5,10.7c-0.7-2.9,1-5.6,3.9-6.3c2.8-0.7,5.6,0.9,6.4,3.8c0.7,2.9-1,5.6-3.9,6.3
		C48,15.3,45.2,13.7,44.5,10.7z M53.1,8.6c-0.5-2.1-2.3-3.3-4.4-2.8c-2.1,0.5-3.1,2.4-2.6,4.5c0.5,2.1,2.3,3.3,4.4,2.8
		C52.6,12.6,53.6,10.7,53.1,8.6z"/>
	<path class="st0" d="M57,9.6L56.9,3l1.6,0l0.2,6.5c0,1.6,0.9,2.3,2.4,2.3c1.5,0,2.3-0.8,2.2-2.4L63,2.8l1.6,0l0.2,6.6
		c0.1,2.5-1.6,3.8-3.8,3.8C58.8,13.3,57.1,12.1,57,9.6z"/>
	<path class="st0" d="M73.5,14.3L71.6,14l-1.3-2.7c-0.2,0-0.5,0-0.7-0.1l-1-0.2l-0.4,2.4l-1.6-0.3l1.7-10.1l2.6,0.4
		c2.8,0.5,4,2.2,3.7,4.6c-0.3,1.6-1.1,2.6-2.6,3L73.5,14.3z M69.7,9.8c1.9,0.3,2.9-0.5,3.1-2c0.3-1.5-0.4-2.6-2.3-2.9l-0.9-0.2
		l-0.8,4.9L69.7,9.8z"/>
	<path class="st0" d="M81.7,6.2l3.3,1.4c1.9,0.8,2.3,2.2,1.7,3.6c-0.3,0.8-1,1.3-1.9,1.3c1,0.8,1.3,1.9,0.8,3.1
		c-0.7,1.6-2.2,2.4-4.4,1.5l-3.6-1.5L81.7,6.2z M81.8,15.8c1.3,0.5,2,0.1,2.4-0.9c0.4-1,0.2-1.9-1.1-2.4l-2-0.8L79.8,15L81.8,15.8z
		 M83.4,11.3c1,0.4,1.6,0.1,1.9-0.7c0.3-0.7,0.2-1.3-0.9-1.8l-1.8-0.8l-1,2.4L83.4,11.3z"/>
	<path class="st0" d="M88,14.5c1.7-2.5,4.9-3,7.3-1.3c2.4,1.7,3.1,4.8,1.3,7.3c-1.7,2.5-4.9,3-7.3,1.3C87,20.1,86.3,17,88,14.5z
		 M95.3,19.6c1.2-1.8,0.9-4-0.8-5.2c-1.7-1.2-3.9-0.7-5.1,1c-1.2,1.8-0.9,4,0.8,5.2C91.9,21.8,94.1,21.3,95.3,19.6z"/>
	<path class="st0" d="M98.1,21.7c2.3-2,5.5-1.7,7.4,0.5c1.9,2.2,1.8,5.4-0.4,7.4c-2.3,2-5.5,1.7-7.4-0.5
		C95.7,27,95.8,23.7,98.1,21.7z M104,28.4c1.6-1.4,1.8-3.6,0.4-5.2c-1.4-1.6-3.6-1.6-5.2-0.2c-1.6,1.4-1.8,3.6-0.4,5.2
		C100.1,29.8,102.3,29.8,104,28.4z"/>
	<path class="st0" d="M113.4,33.9l0.9,1.6l-5.8-0.9l-2.8,6.4l-1-1.7l2.2-5l-1.8-0.3l-2.6,1.5l-0.8-1.4l8.9-5l0.8,1.4l-4.4,2.5
		L113.4,33.9z"/>
</g>
<g>
	<g>
		<path class="st1" d="M111.2,61.1c-0.2,27.1-22.3,48.9-49.4,48.8S12.9,87.6,13,60.5l2.7,0c-0.2,25.6,20.5,46.5,46.1,46.7
			c25.6,0.2,46.5-20.5,46.7-46.1L111.2,61.1z"/>
	</g>
</g>
<g>
	<path class="st1" d="M84.7,48.1l-0.2,31.5l-20.4,4.1l0,0c-0.1,0-0.3,0-0.5,0l0,0l-20.3-4.4l0.2-31.5l20.5,4.4L84.7,48.1z
		 M47.1,43.6l0,3.4l17.1,3.5L47.1,43.6z M81.3,43.8l-17.2,6.8l17.2-3.3L81.3,43.8z"/>
</g>
</svg>
