<?xml version="1.0" encoding="utf-8"?>
<!-- Generator: Adobe Illustrator 21.0.2, SVG Export Plug-In . SVG Version: 6.00 Build 0)  -->
<svg version="1.1" id="Calque_1" xmlns="http://www.w3.org/2000/svg" xmlns:xlink="http://www.w3.org/1999/xlink" x="0px" y="0px"
	 viewBox="0 0 123.2 112.2" style="enable-background:new 0 0 123.2 112.2;" xml:space="preserve">
<style type="text/css">
	.st0{fill:#CA9E67;}
	.st1{font-family:'NeutraDisp-Bold';}
	.st2{font-size:15px;}
	.st3{font-size:14.9459px;}
	.st4{font-size:15.0187px;}
	.st5{font-size:15.0195px;}
	.st6{font-size:15.0255px;}
	.st7{font-size:14.9557px;}
	.st8{font-size:14.9587px;}
</style>
<title>Fichier 1</title>
<g id="Calque_2">
	<g id="Calque_1-2">
		<text transform="matrix(7.062704e-02 -0.9975 0.9975 7.062704e-02 14.4903 64.3501)" class="st0 st1 st2">C</text>
		<text transform="matrix(0.2849 -0.9586 0.9586 0.2849 15.0401 54.5105)" class="st0 st1 st2">O</text>
		<text transform="matrix(0.4876 -0.8731 0.8731 0.4876 18.2496 43.7601)" class="st0 st1 st2">N</text>
		<text transform="matrix(0.6553 -0.7554 0.7554 0.6553 23.02 35.1198)" class="st0 st1 st2">N</text>
		<text transform="matrix(0.7828 -0.6222 0.6222 0.7828 29.5401 27.6602)" class="st0 st1 st3">E</text>
		<text transform="matrix(0.8864 -0.4628 0.4628 0.8864 35.7002 22.6001)" class="st0 st1 st2">C</text>
		<text transform="matrix(0.9581 -0.2865 0.2865 0.9581 44.7599 17.9399)" class="st0 st1 st2">T</text>
		<text transform="matrix(0.9988 -4.993762e-02 4.993762e-02 0.9988 55.44 15.0304)" class="st0 st1 st4">Y</text>
		<text transform="matrix(0.9887 0.1498 -0.1498 0.9887 63.9002 14.3997)" class="st0 st1 st5">O</text>
		<text transform="matrix(0.9333 0.359 -0.359 0.9333 74.9907 16.1303)" class="st0 st1 st2">U</text>
		<text transform="matrix(0.8486 0.5291 -0.5291 0.8486 83.8 19.5301)" class="st0 st1 st6">R</text>
		<text transform="matrix(0.7021 0.7121 -0.7121 0.7021 93.4297 25.8706)" class="st0 st1 st7">P</text>
		<text transform="matrix(0.5593 0.829 -0.829 0.5593 99.2795 31.6297)" class="st0 st1 st4">H</text>
		<text transform="matrix(0.361 0.9326 -0.9326 0.361 104.8598 39.6899)" class="st0 st1 st8">O</text>
		<text transform="matrix(0.1492 0.9888 -0.9888 0.1492 108.9012 50.1698)" class="st0 st1 st2">N</text>
		<text transform="matrix(-3.594599e-02 0.9994 -0.9994 -3.594599e-02 110.3401 59.9501)" class="st0 st1 st2">E</text>
		<path class="st0" d="M51.3,39c-1.5,0-2.8,1.2-2.8,2.8c0,0,0,0,0,0v1.7h28v-1.7c0-1.5-1.2-2.8-2.8-2.8c0,0,0,0,0,0L51.3,39z
			 M48.5,45.7V77h28V45.7L48.5,45.7z M48.5,79.3v3.9c0,1.5,1.2,2.8,2.8,2.8c0,0,0,0,0,0h22.4c1.5,0,2.8-1.2,2.8-2.8c0,0,0,0,0,0
			v-3.9L48.5,79.3z M62.5,81c0.9,0,1.7,0.8,1.7,1.7s-0.8,1.7-1.7,1.7s-1.7-0.8-1.7-1.7C60.8,81.7,61.6,80.9,62.5,81
			C62.5,80.9,62.5,80.9,62.5,81L62.5,81z"/>
		<path class="st0" d="M106.9,76.6c-7.4,24.5-33.3,38.4-57.8,31c-14.8-4.5-26.5-16.1-31-31h-2.8c7.4,26.1,34.6,41.2,60.6,33.8
			c16.3-4.7,29.1-17.4,33.8-33.8H106.9z"/>
	</g>
</g>
</svg>
