<?xml version="1.0" encoding="utf-8"?>
<!-- Generator: Adobe Illustrator 21.0.2, SVG Export Plug-In . SVG Version: 6.00 Build 0)  -->
<svg version="1.1" id="Calque_1" xmlns="http://www.w3.org/2000/svg" xmlns:xlink="http://www.w3.org/1999/xlink" x="0px" y="0px"
	 viewBox="0 0 123.2 112.2" style="enable-background:new 0 0 123.2 112.2;" xml:space="preserve">
<style type="text/css">
	.st0{fill:#93C01F;}
</style>
<g>
	<path class="st0" d="M9,40l2.6-5.8l1.3,0.6l-1.9,4.3l3.9,1.7l1.8-4l1.3,0.6l-1.8,4l2.9,1.3l-0.7,1.5L9,40z"/>
	<path class="st0" d="M25.4,31.4l-1.1,1.6l-3,0.1c-0.1,0.2-0.2,0.4-0.4,0.6l-0.6,0.8l2,1.3l-0.9,1.3L13,31.5l1.4-2.2
		c1.5-2.3,3.7-2.8,5.7-1.5c1.3,0.9,1.9,2.1,1.7,3.6L25.4,31.4z M19.8,32.9c1.1-1.6,0.8-2.8-0.5-3.7c-1.3-0.9-2.5-0.7-3.6,0.9
		L15.1,31l4.1,2.7L19.8,32.9z"/>
	<path class="st0" d="M18.9,23.3l4.5-4.7l1,1L21,23.1l3.1,2.9l3-3.1l1,1l-3,3.1l1.2,1.2l3.5-3.7l1,1l-4.6,4.9L18.9,23.3z"/>
	<path class="st0" d="M30.9,22c0.9,0.4,1.8,0.3,2.7-0.3c0.9-0.7,1.1-1.5,0.6-2.2c-0.6-0.8-1.4-0.6-2.3-0.4l-0.8,0.2
		c-1.6,0.4-2.9,0.4-3.8-0.9c-0.9-1.2-0.7-2.8,0.7-3.8c1-0.8,2.1-0.9,3.3-0.5l-0.5,1.4c-0.7-0.3-1.3-0.2-1.9,0.2
		c-0.7,0.5-0.8,1.2-0.3,1.7c0.5,0.6,1.1,0.6,2.3,0.3l0.8-0.2c1.6-0.4,2.9-0.4,3.9,0.9c1.1,1.5,0.5,3.1-1,4.3c-1.4,1-2.9,1.1-4.2,0.5
		L30.9,22z"/>
	<path class="st0" d="M39.3,8l1.4-0.7l4.6,9.1l-1.4,0.7l-1.4-2.8l-4.4,2.2l1.4,2.8L38.1,20l-4.6-9.1l1.4-0.7l2.5,5.1l4.4-2.2L39.3,8
		z"/>
	<path class="st0" d="M54.4,10.5c0.1-0.6,0.1-1.4-0.1-2.2l1.4-0.3c0.3,1.4,0.2,2.6-0.1,3.6l2,1.7l-1.9,0.4L55,12.9
		c-0.6,0.8-1.5,1.4-2.6,1.6c-2.3,0.5-3.9-0.5-4.2-2.2c-0.3-1.5,0.5-2.5,1.7-3.6c-0.7-0.6-1.1-1.2-1.2-1.8c-0.3-1.2,0.4-2.4,1.9-2.7
		C52,3.8,53,4.5,53.3,5.8C53.5,6.7,53,7.5,52,8.4L54.4,10.5z M50.9,9.4c-1,0.9-1.3,1.6-1.1,2.5c0.2,1,1,1.4,2.3,1.2
		c0.7-0.2,1.3-0.5,1.8-1.1L50.9,9.4z M51.8,6.1c-0.1-0.4-0.4-0.7-1-0.6c-0.6,0.1-0.8,0.6-0.7,1C50.3,7,50.6,7.3,51,7.6l0.1,0.1
		C51.7,7.1,52,6.6,51.8,6.1z"/>
	<path class="st0" d="M60.9,7.8c0.2-3,2.6-5.1,5.6-4.9c2.9,0.2,5.1,2.5,5,5.5c-0.2,3-2.6,5.1-5.6,4.9S60.7,10.8,60.9,7.8z M69.7,8.3
		c0.1-2.2-1.3-3.9-3.4-4c-2.1-0.1-3.7,1.4-3.8,3.6c-0.1,2.2,1.3,3.9,3.4,4C68,12,69.6,10.4,69.7,8.3z"/>
	<path class="st0" d="M79,15.7l-1.8-0.5l-1-2.8c-0.2,0-0.5-0.1-0.7-0.1l-1-0.3l-0.6,2.3l-1.5-0.4L74.9,4l2.5,0.7
		c2.7,0.7,3.8,2.6,3.2,4.9c-0.4,1.5-1.4,2.5-2.9,2.8L79,15.7z M75.7,10.9c1.9,0.5,2.9-0.2,3.3-1.7c0.4-1.5-0.1-2.6-2-3.1l-0.9-0.2
		l-1.3,4.8L75.7,10.9z"/>
	<path class="st0" d="M82.1,11.3c1.3-2.7,4.4-3.7,7-2.4c1.7,0.8,2.4,1.9,2.8,3.2l-1.5,0.5c-0.3-0.9-0.7-1.7-2-2.3
		c-1.9-0.9-3.9-0.1-4.8,1.8c-1,1.9-0.3,4,1.7,5.1c1,0.5,1.8,0.6,2.5,0.5l0.5-1l-2.5-1.2l0.6-1.3l3.8,1.9l-1.5,3
		c-1.1,0.3-2.4,0.3-4.1-0.5C81.9,17,80.8,14,82.1,11.3z"/>
	<path class="st0" d="M90,21.3l-1.3-1l9.9-5.5l0.1,0.1l-2.8,11l-1.3-1l0.4-1.5c0,0-3.6-2.8-3.6-2.8L90,21.3z M96.5,17.6l-3.8,2.2
		l2.7,2.1C95.3,21.8,96.5,17.6,96.5,17.6z"/>
	<path class="st0" d="M102.6,23.2l-5.1,4.4l-1-1.1l7.8-6.8l0.1,0.1l-0.9,9.4l5.1-4.4l1,1.1l-7.8,6.8l-0.1-0.1L102.6,23.2z"/>
	<path class="st0" d="M111.4,28.8l0.9,1.3l-8.6,5.5l-0.9-1.3L111.4,28.8z"/>
	<path class="st0" d="M109.2,34.6c2.7-1.3,5.7-0.1,6.9,2.6c0.8,1.7,0.7,3.2-0.1,4.5l-1.3-0.8c0.6-1,0.6-2,0.1-3.2
		c-0.8-1.8-2.9-2.5-4.9-1.6c-2,0.9-2.8,2.9-2,4.8c0.5,1.2,1.4,1.9,2.6,2.2l-0.3,1.5c-1.7-0.4-2.9-1.3-3.7-3.1
		C105.4,38.9,106.5,35.9,109.2,34.6z"/>
</g>
<g>
	<g>
		<path class="st0" d="M112.2,60.8c0,27.1-22,49.1-49.1,49.1S14,87.9,14,60.8h2.7c0,25.6,20.8,46.4,46.4,46.4s46.4-20.8,46.4-46.4
			H112.2z"/>
	</g>
</g>
<g>
	<path class="st0" d="M88.1,57.4c1.1-2.9,1.9-6,2.3-9.2c0.1-0.6-0.3-1-0.9-1c-0.3,0-0.7,0-1,0.1c-3,0.2-5.9,0.5-8.8,1.2
		c-0.5,0.1-1,0.2-1.5,0.4c-3.3,0.9-6.7,1.7-9.8,3.4c-2.1,1.1-4,2.7-5.2,4.7c-0.8,1.4-1.3,2.9-1.3,4.5c0,1.3,0,3.3,0.8,4.5
		c0,0.2,0,0.4-0.1,0.5c-0.9,1.1-1.7,2.3-2.4,3.9l0,0l0,0c-0.1,0.3-0.2,0.6-0.3,0.9c0,0.1-0.1,0.2-0.1,0.4c-0.1-0.2-0.2-0.5-0.3-0.7
		c-0.1-0.3-0.3-0.7-0.4-1c-0.2-0.4-0.4-0.9-0.5-1.3c-0.1-0.5,0.2-1.1,0.2-1.6c0.5-3.5,0.1-7-1.2-10.3c-0.8-2.2-2.2-3.8-4.1-5
		c-1.9-1.2-4-1.9-6.1-2.6c-0.6-0.2-1.2-0.3-1.7-0.5c-0.6-0.1-0.9,0.1-1,0.6c-0.2,2.4-0.5,4.8-0.7,7.2c-0.2,2.5-0.2,4.9,0.5,7.3
		c0.5,1.9,1.4,3.5,3.1,4.6c1.7,1.1,3.5,1.7,5.4,1.9c1.4,0.2,2.9,0.2,4.3-0.1c0.3,0.7,0.5,1.4,0.7,2.1c0.1,0.6,0.2,1.2,0.2,1.7
		c0.2,2-0.4,2.7-0.4,4.6c0,0.6,0.2,1.1,0.7,1.4c0.4,0.2,1,0.1,1.4-0.3c0.7-0.5,0.9-1.4,1-2.2c0.1-0.8,0-0.6,0.1-1.4
		c0.2-2.1,0.8-4.2,1.7-6.2c0.5-1,1.2-1.9,1.9-2.7c0.7-0.8,1.5-1.6,2.2-2.5c0.8-1,1.9-1.9,2.8-2.8c1.9-1.8,3.9-3.5,6-5.2
		c2.2-1.4,4.4-2.8,6.6-4.2C79.4,55.1,76.1,58,73,61c-2.8,2.7-7.5,8.6-8.4,9.8c-0.1,0.1,0,0.2,0.1,0.2c0.2,0,0.4,0.1,0.6,0.1
		c1.1,0.1,2,0.1,3.1,0.1c1.4,0,2.7,0,4.1-0.1l0,0c4.2-0.3,7.7-1.9,10.5-5.1C85.3,63.3,86.9,60.4,88.1,57.4z"/>
</g>
</svg>
