<?xml version="1.0" encoding="utf-8"?>
<!-- Generator: Adobe Illustrator 21.0.2, SVG Export Plug-In . SVG Version: 6.00 Build 0)  -->
<svg version="1.1" id="Calque_1" xmlns="http://www.w3.org/2000/svg" xmlns:xlink="http://www.w3.org/1999/xlink" x="0px" y="0px"
	 viewBox="0 0 310 229" style="enable-background:new 0 0 310 229;" xml:space="preserve">
<g>
	<g>
		<path d="M74.7,136h62.2c1.5,0,2.3,0.8,2.3,2.3v6.7c0,0.6-0.2,1.2-0.6,1.7c-0.4,0.5-1,0.7-1.7,0.7H61.4c-0.6,0-1.2-0.2-1.6-0.7
			c-0.5-0.5-0.7-1-0.7-1.6v-7.2v-0.7c0-0.4,0.1-0.6,0.3-0.8c3.5-4.3,6.8-8.3,9.7-11.8c2.9-3.5,6.2-7.5,9.9-12
			c3.7-4.5,7.4-9.1,11.2-13.8c9-11,19.2-23.4,30.6-37.4H62.6c-1.5,0-2.3-0.8-2.3-2.5V52c0-0.6,0.1-1.1,0.4-1.5
			c0.3-0.4,0.9-0.6,1.9-0.6h70.8c0.7,0,1.3,0.2,1.8,0.5c0.5,0.3,0.7,0.9,0.7,1.7v7.3L74.7,136z M137.2,117.2c1.4,0,2,0.7,2,2.2v6.9
			c0,0.5-0.2,1.1-0.5,1.6c-0.4,0.5-0.9,0.7-1.6,0.7h-30.8c-0.7,0-1.3-0.2-1.6-0.6c-0.4-0.4-0.5-0.9-0.5-1.4l0.1-6.9
			c0-0.7,0.2-1.3,0.6-1.8c0.4-0.5,0.9-0.7,1.4-0.7H137.2z"/>
	</g>
	<g>
		<path d="M212.6,51.6c7.4,17.2,14.1,32.7,20,46.3c2.4,5.8,4.9,11.5,7.3,17c2.4,5.5,4.6,10.5,6.5,14.8c2.3,5.1,4.4,9.9,6.3,14.4
			c0.2,0.5,0.3,0.8,0.3,1c0,0.2,0.1,0.4,0.1,0.6c0,1.1-0.8,1.6-2.3,1.6h-82.3c-1.7,0-2.6-0.7-2.6-2c0-0.5,0.1-1,0.3-1.2l40.6-92.6
			c0.5-1.2,1.5-1.8,2.9-1.8h0.4c0.9,0,1.5,0.1,1.8,0.3C211.9,50.4,212.3,50.9,212.6,51.6z M182,136h55.1l-27.5-64.8L182,136z"/>
	</g>
</g>
<g>
	<path d="M59.6,181.7c0,0.4-0.7,0.4-0.7-0.2c0-1,0-1,0-2c0-1.3,0-2.6,0.1-3.6c0-0.9-0.1-1.5-0.2-2.7c0-0.2,0.2-0.7,0.5-0.7
		c2,0,1.9,0.1,3.8,0.2c2.3,0.1,4.3,1,4.3,3.5c0,0.8-0.2,1.2-0.7,2c-0.4,0.6-1.7,0.9-2.5,1c-0.5,0.1-1.2,0-1.6,0
		c-0.4,0-1.1-0.1-1.1,0c0,0.2,0.6,0.4,1.2,0.7c0.8,0.3,1.9,0.4,2.6,0.6c1.3,0.4,1.3,0.4,2.6,0.8c0.5,0.2,0.6,0.9,0.1,0.8
		c-1.3-0.4-2.2-0.5-3.5-1c-0.7-0.2-1.6-0.4-2.5-0.7c-0.5-0.2-1.5-0.8-1.9-0.9c-0.3-0.1-0.4,0.3-0.5,0.7
		C59.5,181,59.5,180.8,59.6,181.7z M64,178.5c0.7-0.1,1.1-0.2,1.7-0.5c0.4-0.2,0.8-0.9,0.8-1.5c0-2.1-1.2-2.9-3.1-3
		c-1.2-0.1-2-0.1-2.8-0.2c-0.7-0.1-1.2,0.1-1.1,0.9c0,0.7,0,1.9,0,2.5c-0.1,1.7,0,1.9,0.7,1.9C61.4,178.5,62.6,178.6,64,178.5z"/>
	<path d="M74,180.9c0,0.6,1.5,0.4,2.3,0.3c1-0.1,1.1-0.1,1.9,0c0.7,0,1.3,0,1.9,0c0.3,0,0.3,0.7,0.1,0.7c-0.6,0.2-1.4,0-1.9,0
		c-0.8,0-1.1,0-2.1,0c-0.7,0-1.5,0.1-2.2,0.1c-0.8,0-0.9-0.5-0.9-1.1c0-2.6,0-3.6-0.1-6.3c0-0.7,0-0.6,0-1.3c-0.1-0.5,0-0.9,0.7-0.9
		c0.7,0,1.5,0.1,2.2,0.1c0.9,0,0.9,0,1.7,0c0.6,0,1.3-0.1,2.1-0.1c0.3,0,0.4,0.7,0.1,0.7c-0.8,0-1.4,0.1-2,0.1c-0.7,0-0.4,0-1.3,0
		c-0.4,0-1.7,0.1-2.1,0.1c-0.4,0-0.5,0-0.5,1.4c0,1-0.1,1.9,0,2.5c0,0.5,0.7,0.5,1.9,0.4c1,0,1.5,0,2.3,0c0.7,0,1.2,0.1,2.2,0
		c0.2,0,0.4,0.7,0,0.7c-0.9,0-2,0-2.7,0c-0.8,0-0.6,0-1.6,0c-1.1,0-2,0-2,0.3C74,179.2,74,179.7,74,180.9z"/>
	<path d="M91.3,173.4c-1.2,0-1.5,0-2.8,0c-0.8,0.1-1.5,0.1-1.9,0.3c-0.5,0.2-0.8,0.6-0.8,1.1c-0.1,0.9,1.3,1.1,2.1,1.2
		c1.9,0.2,1.8,0.1,3.5,0.1c0.8,0,1.4,0.1,1.9,0.5c0.7,0.4,1.3,1.4,1.3,2.2c0,1.7-1.5,2.5-3,2.9c-1,0.2-1.4,0.1-2.4,0.1
		c-1.2,0-2.3,0.1-3.1,0c-0.5-0.1-0.3-0.9,0.1-0.9c0.7,0.1,2.2,0.1,3.4,0.1c1,0,1.2,0,2.1-0.3c1.2-0.3,2.1-0.9,2.1-2.2
		c0-0.6-0.4-1.1-0.8-1.5c-0.5-0.3-1.2-0.2-1.8-0.2c-1.7,0.1-1.8,0-3.8-0.2c-1.1-0.1-2.5-1-2.4-2.3c0.1-0.8,0.4-1.3,1.3-1.7
		c0.4-0.2,1.3-0.3,2.2-0.3c1.3,0,0.9,0.1,2.1,0c0.3,0,1.3-0.1,1.6-0.2c0.4-0.1,0.6,0.8,0.2,0.9C92.1,173.4,91.6,173.4,91.3,173.4z"
		/>
	<path d="M102.2,174c0,0.5,0.1,1.2,0.1,1.8c0,0.8,0,1.6-0.1,2.5c0,0.7,0.1,1.2,0.1,1.7c0,0.5,0.1,1,0,1.7c0,0.4-1.1,0.5-1,0
		c0.2-1.2,0.2-1.5,0.2-2.9c0-2.2-0.1-5.4-0.4-5.6c-0.2-0.1-1.1,0-1.7,0c-0.4,0-0.8,0-1.6,0.1c-0.2,0-0.3-0.8,0.2-0.8
		c0.7,0,1.7,0.1,2.3,0.1c0.9,0,1.3,0,2.4,0c0.4,0,1,0.1,1.5,0c0.6,0,0.9,0.1,1.5,0c0.2,0,0.2,0.7,0,0.7c-0.4,0-0.7-0.1-1.2-0.1
		c-0.5,0-1.3,0-1.8,0C102.4,173.2,102.2,173.3,102.2,174z"/>
	<path d="M110.6,180.4c-0.2,0.6-0.2,0.6-0.3,1.2c-0.1,0.5-1,0.3-0.9,0c0.2-0.6,0.4-0.8,0.6-1.4c0.4-1.1,0.8-2,1.1-2.9
		c0.6-1.6,1.3-3.5,1.9-4.6c0.1-0.1,0.8-0.4,1-0.1c0.3,0.4,0.4,1.1,0.8,1.8c0.6,1.1,1.4,2,1.9,2.9c0.5,0.9,1.1,1.9,1.7,2.9
		c0.4,0.5,0.5,0.9,0.9,1.5c0.2,0.4-0.6,0.7-0.8,0.4c-0.4-0.6-0.5-0.8-0.8-1.4c-0.1-0.1-0.2-0.3-0.2-0.4c-0.3-0.4-0.3-0.5-0.7-0.5
		c-0.6,0-1.2,0-1.8,0c-0.8,0-1.9,0-2.5,0c-0.6,0-1,0-1.3,0c-0.2,0-0.3,0-0.4,0.4C110.7,180.2,110.7,180.3,110.6,180.4z M116.1,178
		c-0.5-0.9-1.5-2.2-2.1-3.4c-0.1-0.2-0.2-0.3-0.3-0.5c-0.3-0.6-0.5-0.5-0.7-0.1c-0.4,1-0.9,2.6-1.3,3.6c-0.1,0.4-0.3,0.8-0.5,1.2
		c-0.1,0.2-0.1,0.3,0.7,0.3c1,0,2.2-0.1,3-0.1c0.5,0,0.9,0,1.3,0c0.3,0,0.3,0,0.1-0.5C116.3,178.3,116.2,178.2,116.1,178z"/>
	<path d="M124.5,175.3c0,1,0,2.2,0,3.2c0.1,0.9-0.1,1.1,0.4,1.9c0.4,0.6,0.5,0.8,1.2,0.9c0.8,0.1,0.8-0.1,1.5-0.1c1,0,1.5,0.1,2.5,0
		c0.9-0.1,1.2-0.3,1.5-1.6c0.3-1.3,0.1-2.1,0.1-3.5c0-0.8,0.1-1.4,0.1-2.2c0-0.5-0.1-0.7-0.2-1.2c-0.1-0.4,0.8-0.6,0.8-0.1
		c0.1,0.5,0.1,0.8,0.1,1.3c0,0.8,0,2.2,0,3.1c-0.1,1.4,0.2,1.6-0.1,3c-0.3,1.5-1,2-2.2,2.1c-1.1,0.1-1-0.1-2.1-0.1
		c-0.8,0-1.4,0.2-2.3,0c-0.8-0.1-1.1-0.8-1.8-1.6c-0.5-0.5-0.4-1.7-0.4-2.8c-0.1-1,0.1-1.4,0.1-2.4c0-1.1,0-1.5-0.1-2.6
		c-0.1-0.5,0.9-0.5,0.9-0.1C124.5,173.8,124.5,174.3,124.5,175.3z"/>
	<path d="M138.4,181.8c0-1,0.1-1.1,0.1-2.2c0-1.3,0.1-2.6,0-3.6c-0.1-1.1-0.1-3.1,0.3-3.2c1.4-0.3,2.3-0.1,4.2,0
		c2.2,0.1,4.2,0.8,4.2,3.5c0,1.5-1.4,2.2-3.2,2.5c-0.5,0.1-1.4,0.2-1.8,0.2c-0.4,0-1.5-0.1-1.5,0.1c0,0.2,1,0.4,1.6,0.6
		c0.8,0.3,2,0.7,2.7,0.9c1.3,0.4,1.1,0.3,2.5,0.7c0.5,0.2,0.2,0.9-0.3,0.7c-1.4-0.6-2.2-0.8-3.5-1.2c-0.7-0.2-1.2-0.4-2-0.7
		c-0.5-0.2-1.8-0.9-2.3-0.8c-0.2,0-0.2,0.9-0.2,2.3C139.2,182.1,138.4,182.3,138.4,181.8z M144.4,178c1.2-0.3,1.9-0.8,1.9-2.1
		c-0.1-1.8-1.1-2.3-3-2.4c-1.2-0.1-1.7-0.1-2.5-0.1c-0.7-0.1-1.3,0-1.5,0.5c-0.2,0.7-0.1,2.4-0.1,3c-0.1,1.7,0,1.6,0.8,1.6
		C141.1,178.4,143,178.4,144.4,178z"/>
	<path d="M153.3,180.4c-0.2,0.6-0.2,0.6-0.3,1.2c-0.1,0.5-1,0.3-0.9,0c0.2-0.6,0.4-0.8,0.6-1.4c0.4-1.1,0.8-2,1.1-2.9
		c0.6-1.6,1.3-3.5,1.9-4.6c0.1-0.1,0.8-0.4,1-0.1c0.3,0.4,0.4,1.1,0.8,1.8c0.6,1.1,1.4,2,1.9,2.9c0.5,0.9,1.1,1.9,1.7,2.9
		c0.4,0.5,0.5,0.9,0.9,1.5c0.2,0.4-0.6,0.7-0.8,0.4c-0.4-0.6-0.5-0.8-0.8-1.4c-0.1-0.1-0.2-0.3-0.2-0.4c-0.3-0.4-0.3-0.5-0.7-0.5
		c-0.6,0-1.2,0-1.8,0c-0.8,0-1.9,0-2.5,0c-0.6,0-1,0-1.3,0c-0.2,0-0.3,0-0.4,0.4C153.4,180.2,153.3,180.3,153.3,180.4z M158.8,178
		c-0.5-0.9-1.5-2.2-2.1-3.4c-0.1-0.2-0.2-0.3-0.3-0.5c-0.3-0.6-0.5-0.5-0.7-0.1c-0.4,1-0.9,2.6-1.3,3.6c-0.1,0.4-0.3,0.8-0.5,1.2
		c-0.1,0.2-0.1,0.3,0.7,0.3c1,0,2.2-0.1,3-0.1c0.5,0,0.9,0,1.3,0c0.3,0,0.3,0,0.1-0.5C159,178.3,158.9,178.2,158.8,178z"/>
	<path d="M166.5,180.4c-0.1-1.9,0-3.7,0-5.2c0-0.7-0.1-1.1-0.1-2c0-0.5,0.5-0.8,0.7-0.5c0.7,0.9,0.5,0.8,1.2,1.7
		c0.9,1,1.5,1.6,2.4,2.7c0.5,0.7,1.5,1.4,2,1.9c0.3,0.3,0.6,0.6,1.1,1c0.5,0.6,0.7,0.3,0.7-0.5c0.1-1.3,0-2.5,0-3.6
		c0-1-0.1-2.1,0-3.5c0-0.4,1-0.3,0.9,0.2c-0.2,1.1-0.3,2.3-0.3,3.3c0,1.1,0.2,1.9,0.1,3.3c0,0.9-0.1,1.2-0.1,2.1
		c0,0.5-0.5,0.7-0.9,0.3c-0.9-0.9-1.3-1.3-1.9-1.9c-1.4-1.3-2.4-2.6-3.9-4.4c-0.9-1.1-1.2-1.2-1.2,0.2c0,1.5-0.2,2.4-0.1,4.2
		c0,0.7,0.1,1,0.1,1.7c0,0.3-0.8,0.7-0.8,0.2C166.5,181.1,166.5,181.1,166.5,180.4z"/>
	<path d="M184.8,174c0,0.5,0.1,1.2,0.1,1.8c0,0.8,0,1.6-0.1,2.5c0,0.7,0.1,1.2,0.1,1.7c0,0.5,0.1,1,0,1.7c0,0.4-1.1,0.5-1,0
		c0.2-1.2,0.2-1.5,0.2-2.9c0-2.2-0.1-5.4-0.4-5.6c-0.2-0.1-1.1,0-1.7,0c-0.4,0-0.8,0-1.6,0.1c-0.2,0-0.3-0.8,0.2-0.8
		c0.7,0,1.7,0.1,2.3,0.1c0.9,0,1.3,0,2.4,0c0.4,0,1,0.1,1.5,0c0.6,0,0.9,0.1,1.5,0c0.2,0,0.2,0.7,0,0.7c-0.4,0-0.7-0.1-1.2-0.1
		c-0.5,0-1.3,0-1.8,0C185,173.2,184.8,173.3,184.8,174z"/>
	<path d="M200.2,181.6c0.1,0.5-0.9,0.8-1,0.2c-0.1-1.1-0.1-1.4-0.1-2.5c-0.1-1.2,0.1-1.7,0-3c-0.1-1,0.1-1.5,0-2.5
		c-0.1-1.1-0.1-1.5,0.6-1.5c0.6,0,0.9,0.2,1.5,0.2c1.3,0.1,1.8-0.1,3.4,0c1,0.1,2,0.6,2.5,1.4c0.4,0.7,0.5,1.4,0.4,2.2
		c-0.1,0.9-0.4,1-1.2,1.7c-0.6,0.5-2.4,0.8-4,0.8c-0.9,0-2.2,0-2.3,0.6C199.9,180.1,199.9,180.6,200.2,181.6z M202.3,178.2
		c0.9,0,1.3-0.1,2.2-0.3c0.6-0.1,1-0.3,1.5-0.6c0.6-0.4,1-0.7,1-1.4c0.1-1.4-0.4-2.1-1.9-2.4c-0.8-0.1-1.5-0.1-2.5-0.2
		c-0.6,0-0.8,0-1.4-0.1c-0.5,0-1.2-0.2-1.2,0.6c0,0.9,0.1,1.7,0.1,2.4c0,1.9,0.1,1.9,0.6,1.9C201.1,178.2,201.6,178.2,202.3,178.2z"
		/>
	<path d="M212.3,180.4c-0.2,0.6-0.2,0.6-0.3,1.2c-0.1,0.5-1,0.3-0.9,0c0.2-0.6,0.4-0.8,0.6-1.4c0.4-1.1,0.8-2,1.1-2.9
		c0.6-1.6,1.3-3.5,1.9-4.6c0.1-0.1,0.8-0.4,1-0.1c0.3,0.4,0.4,1.1,0.8,1.8c0.6,1.1,1.4,2,1.9,2.9c0.5,0.9,1.1,1.9,1.7,2.9
		c0.4,0.5,0.5,0.9,0.9,1.5c0.2,0.4-0.6,0.7-0.8,0.4c-0.4-0.6-0.5-0.8-0.8-1.4c-0.1-0.1-0.2-0.3-0.2-0.4c-0.3-0.4-0.3-0.5-0.7-0.5
		c-0.6,0-1.2,0-1.8,0c-0.8,0-1.9,0-2.5,0c-0.6,0-1,0-1.3,0c-0.2,0-0.3,0-0.4,0.4C212.4,180.2,212.3,180.3,212.3,180.4z M217.8,178
		c-0.5-0.9-1.5-2.2-2.1-3.4c-0.1-0.2-0.2-0.3-0.3-0.5c-0.3-0.6-0.5-0.5-0.7-0.1c-0.4,1-0.9,2.6-1.3,3.6c-0.1,0.4-0.3,0.8-0.5,1.2
		c-0.1,0.2-0.1,0.3,0.7,0.3c1,0,2.2-0.1,3-0.1c0.5,0,0.9,0,1.3,0c0.3,0,0.3,0,0.1-0.5C218,178.3,217.9,178.2,217.8,178z"/>
	<path d="M226.3,181.7c0,0.4-0.7,0.4-0.7-0.2c0-1,0-1,0-2c0-1.3,0-2.6,0.1-3.6c0-0.9-0.1-1.5-0.2-2.7c0-0.2,0.2-0.7,0.5-0.7
		c2,0,1.9,0.1,3.8,0.2c2.3,0.1,4.3,1,4.3,3.5c0,0.8-0.2,1.2-0.7,2c-0.4,0.6-1.7,0.9-2.5,1c-0.5,0.1-1.2,0-1.6,0
		c-0.4,0-1.1-0.1-1.1,0c0,0.2,0.6,0.4,1.2,0.7c0.8,0.3,1.9,0.4,2.6,0.6c1.3,0.4,1.3,0.4,2.6,0.8c0.5,0.2,0.6,0.9,0.1,0.8
		c-1.3-0.4-2.2-0.5-3.5-1c-0.7-0.2-1.6-0.4-2.5-0.7c-0.5-0.2-1.5-0.8-1.9-0.9c-0.3-0.1-0.4,0.3-0.5,0.7
		C226.2,181,226.2,180.8,226.3,181.7z M230.8,178.5c0.7-0.1,1.1-0.2,1.7-0.5c0.4-0.2,0.8-0.9,0.8-1.5c0-2.1-1.2-2.9-3.1-3
		c-1.2-0.1-2-0.1-2.8-0.2c-0.7-0.1-1.2,0.1-1.1,0.9c0,0.7,0,1.9,0,2.5c-0.1,1.7,0,1.9,0.7,1.9C228.1,178.5,229.3,178.6,230.8,178.5z
		"/>
	<path d="M240.9,174.1c0,0.7,0,1.5,0,2.1c0,0.3-0.1,0.6-0.1,0.8c0,0.6,0,1.1,0,1.8c0,0.7,0,1.9,0.1,2.8c0,0.5-0.8,0.7-0.8,0.2
		c-0.1-0.9-0.1-1.5-0.2-2.3c0-1,0-2.2,0-3.3c0-0.6,0.1-1.3,0.1-2c0-0.6,0-0.9,0-1.5c0-0.5,1-0.2,1,0.3
		C240.9,173.6,240.8,173.6,240.9,174.1z"/>
	<path d="M252.4,173.4c-1.2,0-1.5,0-2.8,0c-0.8,0.1-1.5,0.1-1.9,0.3c-0.5,0.2-0.8,0.6-0.8,1.1c-0.1,0.9,1.3,1.1,2.1,1.2
		c1.9,0.2,1.8,0.1,3.5,0.1c0.8,0,1.4,0.1,1.9,0.5c0.7,0.4,1.3,1.4,1.3,2.2c0,1.7-1.5,2.5-3,2.9c-1,0.2-1.4,0.1-2.4,0.1
		c-1.2,0-2.3,0.1-3.1,0c-0.5-0.1-0.3-0.9,0.1-0.9c0.7,0.1,2.2,0.1,3.4,0.1c1,0,1.2,0,2.1-0.3c1.2-0.3,2.1-0.9,2.1-2.2
		c0-0.6-0.4-1.1-0.8-1.5c-0.5-0.3-1.2-0.2-1.8-0.2c-1.7,0.1-1.8,0-3.8-0.2c-1.1-0.1-2.5-1-2.4-2.3c0.1-0.8,0.4-1.3,1.3-1.7
		c0.4-0.2,1.3-0.3,2.2-0.3c1.3,0,0.9,0.1,2.1,0c0.3,0,1.3-0.1,1.6-0.2c0.4-0.1,0.6,0.8,0.2,0.9C253.3,173.4,252.7,173.4,252.4,173.4
		z"/>
</g>
</svg>
