<?xml version="1.0" encoding="utf-8"?>
<!-- Generator: Adobe Illustrator 19.0.0, SVG Export Plug-In . SVG Version: 6.00 Build 0)  -->
<svg version="1.1" id="Calque_1" xmlns="http://www.w3.org/2000/svg" xmlns:xlink="http://www.w3.org/1999/xlink" x="0px" y="0px"
	 viewBox="147 -106 310 229" style="enable-background:new 147 -106 310 229;" xml:space="preserve">
<style type="text/css">
	.st0{fill:#FFFFFF;}
</style>
<g>
	<g>
		<path class="st0" d="M221.7,30h62.2c1.5,0,2.3,0.8,2.3,2.3V39c0,0.6-0.2,1.2-0.6,1.7c-0.4,0.5-1,0.7-1.7,0.7h-75.5
			c-0.6,0-1.2-0.2-1.6-0.7c-0.5-0.5-0.7-1-0.7-1.6v-7.2v-0.7c0-0.4,0.1-0.6,0.3-0.8c3.5-4.3,6.8-8.3,9.7-11.8s6.2-7.5,9.9-12
			c3.7-4.5,7.4-9.1,11.2-13.8c9-11,19.2-23.4,30.6-37.4h-58.2c-1.5,0-2.3-0.8-2.3-2.5V-54c0-0.6,0.1-1.1,0.4-1.5s0.9-0.6,1.9-0.6
			h70.8c0.7,0,1.3,0.2,1.8,0.5s0.7,0.9,0.7,1.7v7.3L221.7,30z M284.2,11.2c1.4,0,2,0.7,2,2.2v6.9c0,0.5-0.2,1.1-0.5,1.6
			c-0.4,0.5-0.9,0.7-1.6,0.7h-30.8c-0.7,0-1.3-0.2-1.6-0.6c-0.4-0.4-0.5-0.9-0.5-1.4l0.1-6.9c0-0.7,0.2-1.3,0.6-1.8
			c0.4-0.5,0.9-0.7,1.4-0.7C253.3,11.2,284.2,11.2,284.2,11.2z"/>
	</g>
	<g>
		<path class="st0" d="M359.6-54.4c7.4,17.2,14.1,32.7,20,46.3c2.4,5.8,4.9,11.5,7.3,17c2.4,5.5,4.6,10.5,6.5,14.8
			c2.3,5.1,4.4,9.9,6.3,14.4c0.2,0.5,0.3,0.8,0.3,1s0.1,0.4,0.1,0.6c0,1.1-0.8,1.6-2.3,1.6h-82.3c-1.7,0-2.6-0.7-2.6-2
			c0-0.5,0.1-1,0.3-1.2l40.6-92.6c0.5-1.2,1.5-1.8,2.9-1.8h0.4c0.9,0,1.5,0.1,1.8,0.3C358.9-55.6,359.3-55.1,359.6-54.4z M329,30
			h55.1l-27.5-64.8L329,30z"/>
	</g>
</g>
<g>
	<path class="st0" d="M206.6,75.7c0,0.4-0.7,0.4-0.7-0.2c0-1,0-1,0-2c0-1.3,0-2.6,0.1-3.6c0-0.9-0.1-1.5-0.2-2.7
		c0-0.2,0.2-0.7,0.5-0.7c2,0,1.9,0.1,3.8,0.2c2.3,0.1,4.3,1,4.3,3.5c0,0.8-0.2,1.2-0.7,2c-0.4,0.6-1.7,0.9-2.5,1
		c-0.5,0.1-1.2,0-1.6,0c-0.4,0-1.1-0.1-1.1,0c0,0.2,0.6,0.4,1.2,0.7c0.8,0.3,1.9,0.4,2.6,0.6c1.3,0.4,1.3,0.4,2.6,0.8
		c0.5,0.2,0.6,0.9,0.1,0.8c-1.3-0.4-2.2-0.5-3.5-1c-0.7-0.2-1.6-0.4-2.5-0.7c-0.5-0.2-1.5-0.8-1.9-0.9c-0.3-0.1-0.4,0.3-0.5,0.7
		C206.5,75,206.5,74.8,206.6,75.7z M211,72.5c0.7-0.1,1.1-0.2,1.7-0.5c0.4-0.2,0.8-0.9,0.8-1.5c0-2.1-1.2-2.9-3.1-3
		c-1.2-0.1-2-0.1-2.8-0.2c-0.7-0.1-1.2,0.1-1.1,0.9c0,0.7,0,1.9,0,2.5c-0.1,1.7,0,1.9,0.7,1.9C208.4,72.5,209.6,72.6,211,72.5z"/>
	<path class="st0" d="M221,74.9c0,0.6,1.5,0.4,2.3,0.3c1-0.1,1.1-0.1,1.9,0c0.7,0,1.3,0,1.9,0c0.3,0,0.3,0.7,0.1,0.7
		c-0.6,0.2-1.4,0-1.9,0c-0.8,0-1.1,0-2.1,0c-0.7,0-1.5,0.1-2.2,0.1c-0.8,0-0.9-0.5-0.9-1.1c0-2.6,0-3.6-0.1-6.3c0-0.7,0-0.6,0-1.3
		c-0.1-0.5,0-0.9,0.7-0.9c0.7,0,1.5,0.1,2.2,0.1c0.9,0,0.9,0,1.7,0c0.6,0,1.3-0.1,2.1-0.1c0.3,0,0.4,0.7,0.1,0.7
		c-0.8,0-1.4,0.1-2,0.1c-0.7,0-0.4,0-1.3,0c-0.4,0-1.7,0.1-2.1,0.1s-0.5,0-0.5,1.4c0,1-0.1,1.9,0,2.5c0,0.5,0.7,0.5,1.9,0.4
		c1,0,1.5,0,2.3,0c0.7,0,1.2,0.1,2.2,0c0.2,0,0.4,0.7,0,0.7c-0.9,0-2,0-2.7,0c-0.8,0-0.6,0-1.6,0c-1.1,0-2,0-2,0.3
		C221,73.2,221,73.7,221,74.9z"/>
	<path class="st0" d="M238.3,67.4c-1.2,0-1.5,0-2.8,0c-0.8,0.1-1.5,0.1-1.9,0.3c-0.5,0.2-0.8,0.6-0.8,1.1c-0.1,0.9,1.3,1.1,2.1,1.2
		c1.9,0.2,1.8,0.1,3.5,0.1c0.8,0,1.4,0.1,1.9,0.5c0.7,0.4,1.3,1.4,1.3,2.2c0,1.7-1.5,2.5-3,2.9c-1,0.2-1.4,0.1-2.4,0.1
		c-1.2,0-2.3,0.1-3.1,0c-0.5-0.1-0.3-0.9,0.1-0.9c0.7,0.1,2.2,0.1,3.4,0.1c1,0,1.2,0,2.1-0.3c1.2-0.3,2.1-0.9,2.1-2.2
		c0-0.6-0.4-1.1-0.8-1.5c-0.5-0.3-1.2-0.2-1.8-0.2c-1.7,0.1-1.8,0-3.8-0.2c-1.1-0.1-2.5-1-2.4-2.3c0.1-0.8,0.4-1.3,1.3-1.7
		c0.4-0.2,1.3-0.3,2.2-0.3c1.3,0,0.9,0.1,2.1,0c0.3,0,1.3-0.1,1.6-0.2c0.4-0.1,0.6,0.8,0.2,0.9C239.1,67.4,238.6,67.4,238.3,67.4z"
		/>
	<path class="st0" d="M249.2,68c0,0.5,0.1,1.2,0.1,1.8c0,0.8,0,1.6-0.1,2.5c0,0.7,0.1,1.2,0.1,1.7s0.1,1,0,1.7c0,0.4-1.1,0.5-1,0
		c0.2-1.2,0.2-1.5,0.2-2.9c0-2.2-0.1-5.4-0.4-5.6c-0.2-0.1-1.1,0-1.7,0c-0.4,0-0.8,0-1.6,0.1c-0.2,0-0.3-0.8,0.2-0.8
		c0.7,0,1.7,0.1,2.3,0.1c0.9,0,1.3,0,2.4,0c0.4,0,1,0.1,1.5,0c0.6,0,0.9,0.1,1.5,0c0.2,0,0.2,0.7,0,0.7c-0.4,0-0.7-0.1-1.2-0.1
		s-1.3,0-1.8,0C249.4,67.2,249.2,67.3,249.2,68z"/>
	<path class="st0" d="M257.6,74.4c-0.2,0.6-0.2,0.6-0.3,1.2c-0.1,0.5-1,0.3-0.9,0c0.2-0.6,0.4-0.8,0.6-1.4c0.4-1.1,0.8-2,1.1-2.9
		c0.6-1.6,1.3-3.5,1.9-4.6c0.1-0.1,0.8-0.4,1-0.1c0.3,0.4,0.4,1.1,0.8,1.8c0.6,1.1,1.4,2,1.9,2.9s1.1,1.9,1.7,2.9
		c0.4,0.5,0.5,0.9,0.9,1.5c0.2,0.4-0.6,0.7-0.8,0.4c-0.4-0.6-0.5-0.8-0.8-1.4c-0.1-0.1-0.2-0.3-0.2-0.4c-0.3-0.4-0.3-0.5-0.7-0.5
		c-0.6,0-1.2,0-1.8,0c-0.8,0-1.9,0-2.5,0c-0.6,0-1,0-1.3,0c-0.2,0-0.3,0-0.4,0.4C257.7,74.2,257.7,74.3,257.6,74.4z M263.1,72
		c-0.5-0.9-1.5-2.2-2.1-3.4c-0.1-0.2-0.2-0.3-0.3-0.5c-0.3-0.6-0.5-0.5-0.7-0.1c-0.4,1-0.9,2.6-1.3,3.6c-0.1,0.4-0.3,0.8-0.5,1.2
		c-0.1,0.2-0.1,0.3,0.7,0.3c1,0,2.2-0.1,3-0.1c0.5,0,0.9,0,1.3,0c0.3,0,0.3,0,0.1-0.5C263.3,72.3,263.2,72.2,263.1,72z"/>
	<path class="st0" d="M271.5,69.3c0,1,0,2.2,0,3.2c0.1,0.9-0.1,1.1,0.4,1.9c0.4,0.6,0.5,0.8,1.2,0.9c0.8,0.1,0.8-0.1,1.5-0.1
		c1,0,1.5,0.1,2.5,0c0.9-0.1,1.2-0.3,1.5-1.6s0.1-2.1,0.1-3.5c0-0.8,0.1-1.4,0.1-2.2c0-0.5-0.1-0.7-0.2-1.2
		c-0.1-0.4,0.8-0.6,0.8-0.1c0.1,0.5,0.1,0.8,0.1,1.3c0,0.8,0,2.2,0,3.1c-0.1,1.4,0.2,1.6-0.1,3c-0.3,1.5-1,2-2.2,2.1
		c-1.1,0.1-1-0.1-2.1-0.1c-0.8,0-1.4,0.2-2.3,0c-0.8-0.1-1.1-0.8-1.8-1.6c-0.5-0.5-0.4-1.7-0.4-2.8c-0.1-1,0.1-1.4,0.1-2.4
		c0-1.1,0-1.5-0.1-2.6c-0.1-0.5,0.9-0.5,0.9-0.1C271.5,67.8,271.5,68.3,271.5,69.3z"/>
	<path class="st0" d="M285.4,75.8c0-1,0.1-1.1,0.1-2.2c0-1.3,0.1-2.6,0-3.6c-0.1-1.1-0.1-3.1,0.3-3.2c1.4-0.3,2.3-0.1,4.2,0
		c2.2,0.1,4.2,0.8,4.2,3.5c0,1.5-1.4,2.2-3.2,2.5c-0.5,0.1-1.4,0.2-1.8,0.2c-0.4,0-1.5-0.1-1.5,0.1c0,0.2,1,0.4,1.6,0.6
		c0.8,0.3,2,0.7,2.7,0.9c1.3,0.4,1.1,0.3,2.5,0.7c0.5,0.2,0.2,0.9-0.3,0.7c-1.4-0.6-2.2-0.8-3.5-1.2c-0.7-0.2-1.2-0.4-2-0.7
		c-0.5-0.2-1.8-0.9-2.3-0.8c-0.2,0-0.2,0.9-0.2,2.3C286.2,76.1,285.4,76.3,285.4,75.8z M291.4,72c1.2-0.3,1.9-0.8,1.9-2.1
		c-0.1-1.8-1.1-2.3-3-2.4c-1.2-0.1-1.7-0.1-2.5-0.1c-0.7-0.1-1.3,0-1.5,0.5c-0.2,0.7-0.1,2.4-0.1,3c-0.1,1.7,0,1.6,0.8,1.6
		C288.1,72.4,290,72.4,291.4,72z"/>
	<path class="st0" d="M300.3,74.4c-0.2,0.6-0.2,0.6-0.3,1.2c-0.1,0.5-1,0.3-0.9,0c0.2-0.6,0.4-0.8,0.6-1.4c0.4-1.1,0.8-2,1.1-2.9
		c0.6-1.6,1.3-3.5,1.9-4.6c0.1-0.1,0.8-0.4,1-0.1c0.3,0.4,0.4,1.1,0.8,1.8c0.6,1.1,1.4,2,1.9,2.9s1.1,1.9,1.7,2.9
		c0.4,0.5,0.5,0.9,0.9,1.5c0.2,0.4-0.6,0.7-0.8,0.4c-0.4-0.6-0.5-0.8-0.8-1.4c-0.1-0.1-0.2-0.3-0.2-0.4c-0.3-0.4-0.3-0.5-0.7-0.5
		c-0.6,0-1.2,0-1.8,0c-0.8,0-1.9,0-2.5,0c-0.6,0-1,0-1.3,0c-0.2,0-0.3,0-0.4,0.4C300.4,74.2,300.3,74.3,300.3,74.4z M305.8,72
		c-0.5-0.9-1.5-2.2-2.1-3.4c-0.1-0.2-0.2-0.3-0.3-0.5c-0.3-0.6-0.5-0.5-0.7-0.1c-0.4,1-0.9,2.6-1.3,3.6c-0.1,0.4-0.3,0.8-0.5,1.2
		c-0.1,0.2-0.1,0.3,0.7,0.3c1,0,2.2-0.1,3-0.1c0.5,0,0.9,0,1.3,0c0.3,0,0.3,0,0.1-0.5C306,72.3,305.9,72.2,305.8,72z"/>
	<path class="st0" d="M313.5,74.4c-0.1-1.9,0-3.7,0-5.2c0-0.7-0.1-1.1-0.1-2c0-0.5,0.5-0.8,0.7-0.5c0.7,0.9,0.5,0.8,1.2,1.7
		c0.9,1,1.5,1.6,2.4,2.7c0.5,0.7,1.5,1.4,2,1.9c0.3,0.3,0.6,0.6,1.1,1c0.5,0.6,0.7,0.3,0.7-0.5c0.1-1.3,0-2.5,0-3.6
		c0-1-0.1-2.1,0-3.5c0-0.4,1-0.3,0.9,0.2c-0.2,1.1-0.3,2.3-0.3,3.3c0,1.1,0.2,1.9,0.1,3.3c0,0.9-0.1,1.2-0.1,2.1
		c0,0.5-0.5,0.7-0.9,0.3c-0.9-0.9-1.3-1.3-1.9-1.9c-1.4-1.3-2.4-2.6-3.9-4.4c-0.9-1.1-1.2-1.2-1.2,0.2c0,1.5-0.2,2.4-0.1,4.2
		c0,0.7,0.1,1,0.1,1.7c0,0.3-0.8,0.7-0.8,0.2C313.5,75.1,313.5,75.1,313.5,74.4z"/>
	<path class="st0" d="M331.8,68c0,0.5,0.1,1.2,0.1,1.8c0,0.8,0,1.6-0.1,2.5c0,0.7,0.1,1.2,0.1,1.7s0.1,1,0,1.7c0,0.4-1.1,0.5-1,0
		c0.2-1.2,0.2-1.5,0.2-2.9c0-2.2-0.1-5.4-0.4-5.6c-0.2-0.1-1.1,0-1.7,0c-0.4,0-0.8,0-1.6,0.1c-0.2,0-0.3-0.8,0.2-0.8
		c0.7,0,1.7,0.1,2.3,0.1c0.9,0,1.3,0,2.4,0c0.4,0,1,0.1,1.5,0c0.6,0,0.9,0.1,1.5,0c0.2,0,0.2,0.7,0,0.7c-0.4,0-0.7-0.1-1.2-0.1
		s-1.3,0-1.8,0C332,67.2,331.8,67.3,331.8,68z"/>
	<path class="st0" d="M347.2,75.6c0.1,0.5-0.9,0.8-1,0.2c-0.1-1.1-0.1-1.4-0.1-2.5c-0.1-1.2,0.1-1.7,0-3c-0.1-1,0.1-1.5,0-2.5
		c-0.1-1.1-0.1-1.5,0.6-1.5c0.6,0,0.9,0.2,1.5,0.2c1.3,0.1,1.8-0.1,3.4,0c1,0.1,2,0.6,2.5,1.4c0.4,0.7,0.5,1.4,0.4,2.2
		c-0.1,0.9-0.4,1-1.2,1.7c-0.6,0.5-2.4,0.8-4,0.8c-0.9,0-2.2,0-2.3,0.6C346.9,74.1,346.9,74.6,347.2,75.6z M349.3,72.2
		c0.9,0,1.3-0.1,2.2-0.3c0.6-0.1,1-0.3,1.5-0.6c0.6-0.4,1-0.7,1-1.4c0.1-1.4-0.4-2.1-1.9-2.4c-0.8-0.1-1.5-0.1-2.5-0.2
		c-0.6,0-0.8,0-1.4-0.1c-0.5,0-1.2-0.2-1.2,0.6c0,0.9,0.1,1.7,0.1,2.4c0,1.9,0.1,1.9,0.6,1.9C348.1,72.2,348.6,72.2,349.3,72.2z"/>
	<path class="st0" d="M359.3,74.4c-0.2,0.6-0.2,0.6-0.3,1.2c-0.1,0.5-1,0.3-0.9,0c0.2-0.6,0.4-0.8,0.6-1.4c0.4-1.1,0.8-2,1.1-2.9
		c0.6-1.6,1.3-3.5,1.9-4.6c0.1-0.1,0.8-0.4,1-0.1c0.3,0.4,0.4,1.1,0.8,1.8c0.6,1.1,1.4,2,1.9,2.9s1.1,1.9,1.7,2.9
		c0.4,0.5,0.5,0.9,0.9,1.5c0.2,0.4-0.6,0.7-0.8,0.4c-0.4-0.6-0.5-0.8-0.8-1.4c-0.1-0.1-0.2-0.3-0.2-0.4c-0.3-0.4-0.3-0.5-0.7-0.5
		c-0.6,0-1.2,0-1.8,0c-0.8,0-1.9,0-2.5,0c-0.6,0-1,0-1.3,0c-0.2,0-0.3,0-0.4,0.4C359.4,74.2,359.3,74.3,359.3,74.4z M364.8,72
		c-0.5-0.9-1.5-2.2-2.1-3.4c-0.1-0.2-0.2-0.3-0.3-0.5c-0.3-0.6-0.5-0.5-0.7-0.1c-0.4,1-0.9,2.6-1.3,3.6c-0.1,0.4-0.3,0.8-0.5,1.2
		c-0.1,0.2-0.1,0.3,0.7,0.3c1,0,2.2-0.1,3-0.1c0.5,0,0.9,0,1.3,0c0.3,0,0.3,0,0.1-0.5C365,72.3,364.9,72.2,364.8,72z"/>
	<path class="st0" d="M373.3,75.7c0,0.4-0.7,0.4-0.7-0.2c0-1,0-1,0-2c0-1.3,0-2.6,0.1-3.6c0-0.9-0.1-1.5-0.2-2.7
		c0-0.2,0.2-0.7,0.5-0.7c2,0,1.9,0.1,3.8,0.2c2.3,0.1,4.3,1,4.3,3.5c0,0.8-0.2,1.2-0.7,2c-0.4,0.6-1.7,0.9-2.5,1
		c-0.5,0.1-1.2,0-1.6,0s-1.1-0.1-1.1,0c0,0.2,0.6,0.4,1.2,0.7c0.8,0.3,1.9,0.4,2.6,0.6c1.3,0.4,1.3,0.4,2.6,0.8
		c0.5,0.2,0.6,0.9,0.1,0.8c-1.3-0.4-2.2-0.5-3.5-1c-0.7-0.2-1.6-0.4-2.5-0.7c-0.5-0.2-1.5-0.8-1.9-0.9c-0.3-0.1-0.4,0.3-0.5,0.7
		C373.2,75,373.2,74.8,373.3,75.7z M377.8,72.5c0.7-0.1,1.1-0.2,1.7-0.5c0.4-0.2,0.8-0.9,0.8-1.5c0-2.1-1.2-2.9-3.1-3
		c-1.2-0.1-2-0.1-2.8-0.2c-0.7-0.1-1.2,0.1-1.1,0.9c0,0.7,0,1.9,0,2.5c-0.1,1.7,0,1.9,0.7,1.9C375.1,72.5,376.3,72.6,377.8,72.5z"/>
	<path class="st0" d="M387.9,68.1c0,0.7,0,1.5,0,2.1c0,0.3-0.1,0.6-0.1,0.8c0,0.6,0,1.1,0,1.8s0,1.9,0.1,2.8c0,0.5-0.8,0.7-0.8,0.2
		c-0.1-0.9-0.1-1.5-0.2-2.3c0-1,0-2.2,0-3.3c0-0.6,0.1-1.3,0.1-2c0-0.6,0-0.9,0-1.5c0-0.5,1-0.2,1,0.3
		C387.9,67.6,387.8,67.6,387.9,68.1z"/>
	<path class="st0" d="M399.4,67.4c-1.2,0-1.5,0-2.8,0c-0.8,0.1-1.5,0.1-1.9,0.3c-0.5,0.2-0.8,0.6-0.8,1.1c-0.1,0.9,1.3,1.1,2.1,1.2
		c1.9,0.2,1.8,0.1,3.5,0.1c0.8,0,1.4,0.1,1.9,0.5c0.7,0.4,1.3,1.4,1.3,2.2c0,1.7-1.5,2.5-3,2.9c-1,0.2-1.4,0.1-2.4,0.1
		c-1.2,0-2.3,0.1-3.1,0c-0.5-0.1-0.3-0.9,0.1-0.9c0.7,0.1,2.2,0.1,3.4,0.1c1,0,1.2,0,2.1-0.3c1.2-0.3,2.1-0.9,2.1-2.2
		c0-0.6-0.4-1.1-0.8-1.5c-0.5-0.3-1.2-0.2-1.8-0.2c-1.7,0.1-1.8,0-3.8-0.2c-1.1-0.1-2.5-1-2.4-2.3c0.1-0.8,0.4-1.3,1.3-1.7
		c0.4-0.2,1.3-0.3,2.2-0.3c1.3,0,0.9,0.1,2.1,0c0.3,0,1.3-0.1,1.6-0.2c0.4-0.1,0.6,0.8,0.2,0.9C400.3,67.4,399.7,67.4,399.4,67.4z"
		/>
</g>
</svg>
